<svg width="42" height="42" viewBox="0 0 42 42" fill="none" xmlns="http://www.w3.org/2000/svg">
<path d="M21 0C24.8548 4.59675e-08 28.6351 1.061 31.927 3.06675C35.2188 5.0725 37.895 7.94561 39.6625 11.3713C41.4299 14.797 42.2204 18.643 41.9472 22.4881C41.6741 26.3332 40.3478 30.0289 38.1139 33.1703C35.8799 36.3117 32.8244 38.7776 29.282 40.2979C25.7397 41.8181 21.8473 42.334 18.0313 41.7891C14.2152 41.2442 10.6228 39.6594 7.64758 37.2084C4.67237 34.7575 2.42917 31.5349 1.16376 27.8937L2.45487 27.445C3.63792 30.8492 5.73511 33.862 8.51667 36.1534C11.2982 38.4449 14.6568 39.9265 18.2245 40.436C21.7922 40.9454 25.4312 40.4631 28.743 39.0418C32.0547 37.6205 34.9114 35.3151 36.9999 32.3781C39.0885 29.4412 40.3284 25.986 40.5838 22.3912C40.8392 18.7965 40.1002 15.2007 38.4478 11.998C36.7954 8.7953 34.2933 6.1092 31.2157 4.234C28.1382 2.3588 24.6039 1.36686 21 1.36686V0Z" fill="#2563EB"/>
<circle cx="21" cy="21" r="18" fill="#2563EB"/>
<path d="M16.6697 27C16.5497 27 16.4477 26.958 16.3637 26.874C16.2797 26.79 16.2377 26.688 16.2377 26.568V25.65C16.2377 25.542 16.2617 25.416 16.3097 25.272C16.3697 25.116 16.4957 24.96 16.6877 24.804L19.5317 21.978C20.3237 21.354 20.9597 20.826 21.4397 20.394C21.9317 19.95 22.2857 19.548 22.5017 19.188C22.7297 18.816 22.8437 18.45 22.8437 18.09C22.8437 17.55 22.6937 17.112 22.3937 16.776C22.1057 16.44 21.6437 16.272 21.0077 16.272C20.5877 16.272 20.2337 16.362 19.9457 16.542C19.6577 16.71 19.4297 16.938 19.2617 17.226C19.1057 17.514 18.9977 17.832 18.9377 18.18C18.9137 18.336 18.8477 18.444 18.7397 18.504C18.6317 18.564 18.5237 18.594 18.4157 18.594H16.8137C16.7057 18.594 16.6157 18.558 16.5437 18.486C16.4717 18.414 16.4357 18.33 16.4357 18.234C16.4477 17.718 16.5557 17.22 16.7597 16.74C16.9637 16.248 17.2577 15.816 17.6417 15.444C18.0377 15.06 18.5177 14.754 19.0817 14.526C19.6457 14.298 20.2817 14.184 20.9897 14.184C21.9857 14.184 22.8077 14.352 23.4557 14.688C24.1157 15.024 24.6077 15.48 24.9317 16.056C25.2677 16.632 25.4357 17.28 25.4357 18C25.4357 18.564 25.3277 19.086 25.1117 19.566C24.8957 20.034 24.5837 20.49 24.1757 20.934C23.7677 21.366 23.2757 21.81 22.6997 22.266L20.1437 24.858H25.2737C25.4057 24.858 25.5077 24.9 25.5797 24.984C25.6637 25.056 25.7057 25.158 25.7057 25.29V26.568C25.7057 26.688 25.6637 26.79 25.5797 26.874C25.5077 26.958 25.4057 27 25.2737 27H16.6697Z" fill="white"/>
</svg>
