<svg width="42" height="42" viewBox="0 0 42 42" fill="none" xmlns="http://www.w3.org/2000/svg">
<path d="M42 21C42 32.598 32.598 42 21 42C9.40202 42 0 32.598 0 21C0 9.40202 9.40202 0 21 0C32.598 0 42 9.40202 42 21ZM1.36686 21C1.36686 31.8431 10.1569 40.6331 21 40.6331C31.8431 40.6331 40.6331 31.8431 40.6331 21C40.6331 10.1569 31.8431 1.36686 21 1.36686C10.1569 1.36686 1.36686 10.1569 1.36686 21Z" fill="#2563EB"/>
<circle cx="21" cy="21" r="18" fill="#2563EB"/>
<path d="M20.9291 27.18C20.0891 27.18 19.3631 27.078 18.7511 26.874C18.1391 26.67 17.6291 26.406 17.2211 26.082C16.8251 25.746 16.5251 25.386 16.3211 25.002C16.1171 24.606 16.0091 24.216 15.9971 23.832C15.9971 23.724 16.0331 23.64 16.1051 23.58C16.1891 23.508 16.2851 23.472 16.3931 23.472H18.0131C18.1331 23.472 18.2351 23.496 18.3191 23.544C18.4031 23.592 18.4751 23.688 18.5351 23.832C18.6431 24.156 18.8171 24.414 19.0571 24.606C19.3091 24.798 19.5971 24.936 19.9211 25.02C20.2451 25.092 20.5871 25.128 20.9471 25.128C21.6671 25.128 22.2371 24.96 22.6571 24.624C23.0891 24.276 23.3051 23.784 23.3051 23.148C23.3051 22.512 23.1071 22.056 22.7111 21.78C22.3151 21.492 21.7631 21.348 21.0551 21.348H19.2011C19.0691 21.348 18.9611 21.312 18.8771 21.24C18.7931 21.156 18.7511 21.048 18.7511 20.916V20.16C18.7511 20.04 18.7751 19.938 18.8231 19.854C18.8831 19.758 18.9431 19.68 19.0031 19.62L22.2251 16.47H17.0771C16.9451 16.47 16.8371 16.428 16.7531 16.344C16.6811 16.26 16.6451 16.158 16.6451 16.038V14.85C16.6451 14.718 16.6811 14.61 16.7531 14.526C16.8371 14.442 16.9451 14.4 17.0771 14.4H24.7991C24.9311 14.4 25.0391 14.442 25.1231 14.526C25.2071 14.61 25.2491 14.718 25.2491 14.85V15.93C25.2491 16.038 25.2251 16.134 25.1771 16.218C25.1291 16.302 25.0751 16.374 25.0151 16.434L21.9011 19.638L22.1171 19.656C22.8491 19.716 23.4971 19.884 24.0611 20.16C24.6371 20.424 25.0811 20.814 25.3931 21.33C25.7171 21.846 25.8791 22.494 25.8791 23.274C25.8791 24.09 25.6631 24.792 25.2311 25.38C24.8111 25.956 24.2291 26.4 23.4851 26.712C22.7411 27.024 21.8891 27.18 20.9291 27.18Z" fill="white"/>
</svg>
