<svg width="42" height="42" viewBox="0 0 42 42" fill="none" xmlns="http://www.w3.org/2000/svg">
<path d="M21 0C24.3782 4.02852e-08 27.7066 0.815014 30.7027 2.37587C33.6987 3.93673 36.274 6.19736 38.2099 8.96589C40.1458 11.7344 41.3852 14.9291 41.823 18.2789C42.2607 21.6287 41.8838 25.0346 40.7243 28.2076L39.4405 27.7385C40.5245 24.772 40.8769 21.5878 40.4676 18.456C40.0584 15.3243 38.8996 12.3375 37.0897 9.74918C35.2798 7.16084 32.8722 5.04735 30.0711 3.58809C27.2701 2.12883 24.1584 1.36686 21 1.36686V0Z" fill="#2563EB"/>
<circle cx="21" cy="21" r="18" fill="#2563EB"/>
<path d="M22.32 27C22.188 27 22.08 26.958 21.996 26.874C21.924 26.79 21.888 26.688 21.888 26.568V17.244L19.152 19.35C19.044 19.422 18.936 19.452 18.828 19.44C18.72 19.416 18.624 19.35 18.54 19.242L17.784 18.27C17.712 18.162 17.682 18.048 17.694 17.928C17.718 17.808 17.784 17.712 17.892 17.64L21.924 14.526C21.996 14.466 22.068 14.43 22.14 14.418C22.212 14.406 22.29 14.4 22.374 14.4H23.958C24.078 14.4 24.18 14.442 24.264 14.526C24.348 14.61 24.39 14.712 24.39 14.832V26.568C24.39 26.688 24.348 26.79 24.264 26.874C24.18 26.958 24.078 27 23.958 27H22.32Z" fill="white"/>
</svg>
