<svg width="230" height="32" viewBox="0 0 230 32" fill="none" xmlns="http://www.w3.org/2000/svg">
<g id="Group 107657">
<path id="Vector" d="M30.1322 19.8996C30.1322 20.8331 30.1322 21.7665 30.1322 22.7C30.1304 22.7783 30.1462 22.856 30.1785 22.9275C30.2107 22.999 30.2585 23.0625 30.3184 23.1133C30.8965 23.6335 31.3937 24.2363 31.7939 24.9018C32.0618 25.3156 32.2264 25.7871 32.2738 26.2771C32.3016 26.4537 32.285 26.6344 32.2255 26.8032C32.1661 26.9719 32.0655 27.1233 31.9329 27.244C31.8003 27.3647 31.6397 27.4508 31.4654 27.4947C31.2912 27.5386 31.1088 27.5389 30.9344 27.4955C30.2433 27.3949 29.5857 27.1337 29.0149 26.7331C28.6926 26.5264 28.6568 26.5407 28.4491 26.8756C28.0196 27.4967 27.4662 28.023 26.8232 28.4219C25.5246 29.319 23.9777 29.7921 22.3968 29.7757C18.1997 29.7757 13.9954 29.7757 9.79104 29.7757C8.62314 29.789 7.46829 29.5305 6.4187 29.0208C5.36911 28.5111 4.45384 27.7642 3.74598 26.84C3.59557 26.6547 3.47382 26.5906 3.24462 26.7473C2.73477 27.095 2.15998 27.3373 1.5543 27.4599C1.29565 27.5242 1.02508 27.5242 0.766429 27.4599C0.551491 27.4159 0.358199 27.3 0.218747 27.1314C0.0792952 26.9629 0.0021108 26.7519 5.91106e-05 26.5336C-0.00415863 25.8545 0.217444 25.1931 0.630353 24.6524C1.01008 24.0812 1.4627 23.5614 1.97687 23.1061C2.03231 23.059 2.07602 22.9997 2.1046 22.933C2.13318 22.8662 2.14585 22.7938 2.14162 22.7214C2.14162 21.0255 2.14162 19.3295 2.14162 17.6336C2.13712 15.7806 2.81298 13.9898 4.04219 12.5976C5.27141 11.2054 6.96935 10.3078 8.81696 10.0733C10.13 9.97469 11.4476 9.95089 12.7634 10.0021C13.3651 10.0021 13.3651 10.0021 13.5513 9.41779C13.6633 9.0451 13.8597 8.70291 14.1254 8.41756C14.3911 8.1322 14.7191 7.91128 15.084 7.77176C15.1912 7.73899 15.2831 7.66941 15.3435 7.57543C15.4038 7.48146 15.4287 7.36921 15.4135 7.25872C15.4135 6.36089 15.4135 5.46305 15.4135 4.55809C15.4275 4.4267 15.3989 4.2943 15.3319 4.18022C15.2649 4.06614 15.163 3.97634 15.0411 3.92391C14.7566 3.76522 14.5122 3.5442 14.3263 3.27758C14.1404 3.01096 14.018 2.70574 13.9683 2.38507C13.9186 2.06439 13.943 1.73668 14.0395 1.42675C14.136 1.11681 14.3022 0.832804 14.5254 0.596244C14.9708 0.240955 15.4498 -0.0670349 16.1645 0.0126939C16.7337 0.012747 17.2872 0.250512 17.6443 0.693678C18.0014 1.13684 18.276 1.83764 18.2135 2.40223C18.151 2.96682 17.6639 3.58288 17.2184 3.93817C17.1072 3.98737 17.0146 4.07052 16.9541 4.17558C16.8936 4.28063 16.8683 4.40212 16.8818 4.52246C16.8818 5.43454 16.8818 6.34664 16.8818 7.25872C16.8651 7.3694 16.8893 7.48235 16.9499 7.57666C17.0105 7.67097 17.1033 7.74028 17.2113 7.77176C17.6167 7.9338 17.9744 8.19512 18.2511 8.53147C18.5278 8.86782 18.7146 9.26829 18.7942 9.69569C18.8515 9.94508 18.9589 10.0021 19.1881 10.0021C20.2983 10.0021 21.4084 10.0021 22.5186 10.0021C23.9718 9.9959 25.3959 10.4076 26.6196 11.1875C27.8432 11.9675 28.8143 13.0826 29.416 14.3986C29.8996 15.373 30.1451 16.4473 30.1322 17.5339V19.8925V19.8996ZM16.1298 10.508H10.0847C9.6057 10.4993 9.12674 10.5279 8.65222 10.5935C6.96898 10.8598 5.43509 11.711 4.32309 12.9961C3.21108 14.2811 2.59295 15.9167 2.57851 17.6123C2.57851 19.1015 2.57851 20.5908 2.57851 22.0872C2.56524 22.3253 2.57724 22.5641 2.61433 22.7997C2.63809 22.8983 2.6332 23.0015 2.60023 23.0974C2.56726 23.1933 2.50757 23.2779 2.42811 23.3413C1.92625 23.7594 1.47874 24.2382 1.0959 24.7664C0.787131 25.1911 0.574546 25.6773 0.472779 26.1915C0.372506 26.7046 0.594535 26.9896 1.11739 26.9896C1.2648 26.9882 1.41151 26.9691 1.5543 26.9326C2.19779 26.7632 2.79978 26.465 3.32341 26.0561C3.5526 25.8851 3.66004 25.8851 3.82477 26.1345C4.50973 27.1515 5.45061 27.972 6.55364 28.5145C7.63769 29.045 8.83389 29.3089 10.0417 29.2841H21.3368C21.8525 29.2841 22.3682 29.2841 22.8839 29.2484C23.9856 29.19 25.0586 28.8777 26.0182 28.336C26.9778 27.7944 27.7977 27.0383 28.4132 26.1274C28.5565 25.9208 28.6424 25.9136 28.8358 26.049C29.3545 26.4373 29.9392 26.7294 30.562 26.9112C30.9344 27.011 31.357 27.1392 31.665 26.8186C31.9729 26.4979 31.7939 26.106 31.665 25.7782C31.2735 24.8389 30.6532 24.0112 29.8601 23.3698C29.7739 23.2989 29.7071 23.2075 29.6658 23.1042C29.6245 23.0008 29.61 22.8888 29.6237 22.7784C29.7347 20.8584 29.7347 18.9337 29.6237 17.0137C29.509 15.2623 28.7094 13.6253 27.3962 12.4533C26.0231 11.162 24.1927 10.4628 22.3037 10.508C20.2266 10.5223 18.1782 10.508 16.1298 10.508Z" fill="#18172F"/>
<path id="Vector_2" d="M16.1295 10.5079C18.178 10.5079 20.2264 10.5079 22.2748 10.5079C24.1638 10.4627 25.9942 11.1619 27.3673 12.4532C28.6805 13.6252 29.4801 15.2622 29.5948 17.0136C29.7058 18.9336 29.7058 20.8583 29.5948 22.7783C29.5811 22.8887 29.5956 23.0007 29.6369 23.1041C29.6782 23.2074 29.745 23.2988 29.8312 23.3697C30.6243 24.0111 31.2446 24.8388 31.6361 25.7782C31.7578 26.1202 31.9154 26.4907 31.6361 26.8185C31.3567 27.1463 30.9198 27.0109 30.5331 26.9111C29.9209 26.7167 29.3484 26.415 28.8428 26.0204C28.6494 25.885 28.5634 25.8922 28.4202 26.0988C27.8107 27.0135 26.9958 27.7748 26.04 28.3226C25.0841 28.8704 24.0134 29.1898 22.9123 29.2555C22.3966 29.2982 21.8809 29.2911 21.3652 29.2911H10.0701C8.86229 29.3159 7.6661 29.052 6.58205 28.5215C5.47902 27.9791 4.53814 27.1585 3.85318 26.1416C3.68845 25.8922 3.581 25.8922 3.35181 26.0632C2.82818 26.472 2.22619 26.7703 1.5827 26.9396C1.43991 26.9761 1.2932 26.9953 1.14579 26.9966C0.622936 26.9966 0.429556 26.7116 0.50118 26.1986C0.602946 25.6843 0.815532 25.1981 1.1243 24.7734C1.50714 24.2452 1.95466 23.7665 2.45651 23.3483C2.53597 23.2849 2.59567 23.2003 2.62864 23.1044C2.66161 23.0085 2.6665 22.9053 2.64274 22.8068C2.60565 22.5712 2.59365 22.3323 2.60692 22.0942C2.60692 20.5978 2.60692 19.1086 2.60692 17.6193C2.62136 15.9237 3.23949 14.2881 4.3515 13.0031C5.46351 11.7181 6.99738 10.8668 8.68062 10.6006C9.15514 10.5349 9.6341 10.5063 10.1131 10.515L16.1295 10.5079ZM16.1295 25.429H18.9443C19.8898 25.429 20.8424 25.429 21.8093 25.429C22.791 25.416 23.7285 25.0208 24.4208 24.3281C25.113 23.6354 25.5048 22.7004 25.5122 21.7237C25.5122 20.5551 25.5122 19.3793 25.5122 18.2036C25.5096 17.7047 25.4068 17.2113 25.2099 16.7525C25.0131 16.2936 24.7261 15.8784 24.3659 15.5313C24.0057 15.1842 23.5794 14.9122 23.1121 14.7311C22.6448 14.55 22.1459 14.4636 21.6446 14.4769H10.8222C10.4814 14.4893 10.1418 14.5226 9.80513 14.5767C8.94629 14.7402 8.17246 15.1987 7.61874 15.872C7.06501 16.5453 6.76654 17.3907 6.77543 18.2606C6.81124 19.3865 6.81124 20.5194 6.77543 21.6453C6.77256 22.1423 6.86908 22.6349 7.05937 23.0945C7.24966 23.554 7.52992 23.9713 7.88385 24.3221C8.23778 24.6729 8.6583 24.9502 9.12094 25.1377C9.58358 25.3253 10.0791 25.4195 10.5787 25.4148C12.4194 25.4148 14.2601 25.4148 16.108 25.4148L16.1295 25.429Z" fill="#2563EB"/>
<path id="Vector_3" d="M16.1295 3.70414C15.9111 3.70699 15.6943 3.66642 15.4919 3.5848C15.2895 3.50318 15.1055 3.38215 14.9507 3.22883C14.7959 3.07551 14.6735 2.89298 14.5905 2.69194C14.5076 2.4909 14.4659 2.27541 14.4678 2.05812C14.4678 1.73287 14.5647 1.41491 14.7462 1.14438C14.9277 0.873848 15.1856 0.662876 15.4876 0.538086C15.7895 0.413296 16.1218 0.380283 16.4425 0.44322C16.7632 0.506157 17.0581 0.662221 17.2897 0.891709C17.5214 1.1212 17.6795 1.41382 17.7442 1.73265C17.8088 2.05147 17.7771 2.38221 17.653 2.6831C17.5288 2.98399 17.3179 3.24156 17.0467 3.42328C16.7756 3.605 16.4564 3.70273 16.1295 3.70414Z" fill="#2563EB"/>
<path id="Vector_4" d="M16.0729 9.94175C15.4856 9.94175 14.8982 9.94175 14.3181 9.94175C14.0746 9.94175 14.0459 9.84913 14.1032 9.64961C14.2161 9.21797 14.4663 8.83425 14.8165 8.55578C15.1667 8.27731 15.5981 8.11903 16.0462 8.1046C16.4942 8.09017 16.935 8.22035 17.3026 8.4757C17.6701 8.73105 17.9448 9.09787 18.0855 9.52134C18.2144 9.90613 18.2001 9.94175 17.799 9.94175H16.0729Z" fill="#2563EB"/>
<path id="Vector_5" d="M15.8433 5.86956C15.8433 5.39214 15.8433 4.91473 15.8433 4.44443C15.8433 4.20216 15.8933 4.11665 16.0435 4.15228C16.105 4.16292 16.168 4.16292 16.2295 4.15228C16.3511 4.15228 16.4083 4.20929 16.4083 4.38743C16.4083 5.39927 16.4083 6.40398 16.4083 7.41582C16.4083 7.55833 16.3654 7.62246 16.2652 7.63671C15.8504 7.69372 15.8433 7.69372 15.8433 7.03816V5.86956Z" fill="#2563EB"/>
<path id="Vector_6" d="M16.1082 25.4145C14.2603 25.4145 12.4195 25.4145 10.5788 25.4145C10.078 25.4192 9.58131 25.3246 9.11772 25.1361C8.65413 24.9477 8.23297 24.6692 7.87885 24.3169C7.52473 23.9646 7.24477 23.5455 7.05533 23.0843C6.8659 22.6231 6.77078 22.129 6.77556 21.6308C6.81137 20.5049 6.81137 19.3719 6.77556 18.2461C6.77108 17.3819 7.06982 16.5432 7.62027 15.8746C8.17072 15.206 8.93839 14.7494 9.79093 14.5835C10.1276 14.5295 10.4672 14.4962 10.808 14.4838H21.6089C22.1102 14.4705 22.6091 14.5569 23.0764 14.7379C23.5437 14.919 23.97 15.1911 24.3302 15.5382C24.6905 15.8853 24.9774 16.3004 25.1743 16.7593C25.3711 17.2182 25.4739 17.7115 25.4766 18.2105C25.4766 19.3862 25.4766 20.5619 25.4766 21.7305C25.4691 22.7073 25.0773 23.6422 24.3851 24.3349C23.6928 25.0276 22.7553 25.4228 21.7736 25.4358C20.821 25.4358 19.8684 25.4358 18.9086 25.4358L16.1082 25.4145ZM16.1082 24.9299H21.6375C22.0574 24.9529 22.4777 24.8925 22.8739 24.7521C23.2701 24.6117 23.6341 24.3942 23.9449 24.1122C24.2556 23.8303 24.5067 23.4896 24.6836 23.11C24.8605 22.7305 24.9597 22.3196 24.9752 21.9015C25.079 20.5496 25.079 19.1918 24.9752 17.8399C24.9057 17.0642 24.5478 16.3423 23.9716 15.8151C23.3954 15.288 22.6423 14.9937 21.8596 14.9897C18.0396 14.9897 14.2197 14.9897 10.3997 14.9897C9.64712 15.0077 8.92598 15.2937 8.36738 15.7959C7.80879 16.298 7.44983 16.9828 7.35572 17.7259C7.2622 19.1495 7.2622 20.5777 7.35572 22.0013C7.36928 22.245 7.41999 22.4853 7.50613 22.7139C7.7279 23.3603 8.14924 23.9206 8.71003 24.3147C9.27081 24.7088 9.94238 24.9166 10.6289 24.9085L16.1082 24.9299Z" fill="#18172F"/>
<path id="Vector_7" d="M16.0718 24.9462H10.5782C9.89167 24.9543 9.22009 24.7465 8.65931 24.3524C8.09852 23.9582 7.67719 23.398 7.45542 22.7515C7.36928 22.523 7.31856 22.2827 7.305 22.039C7.21148 20.6154 7.21148 19.1872 7.305 17.7636C7.39911 17.0205 7.75808 16.3357 8.31667 15.8335C8.87527 15.3314 9.5964 15.0454 10.349 15.0273C14.169 15.0273 17.9889 15.0273 21.8088 15.0273C22.5916 15.0314 23.3447 15.3257 23.9209 15.8528C24.4971 16.3799 24.8549 17.1019 24.9245 17.8776C25.0283 19.2295 25.0283 20.5873 24.9245 21.9392C24.9089 22.3573 24.8098 22.7681 24.6329 23.1477C24.456 23.5273 24.2049 23.868 23.8941 24.1499C23.5834 24.4318 23.2193 24.6494 22.8232 24.7898C22.427 24.9301 22.0067 24.9906 21.5868 24.9676L16.0718 24.9462ZM22.7901 18.9963C22.7901 18.6214 22.6783 18.255 22.469 17.9433C22.2597 17.6316 21.9621 17.3886 21.614 17.2452C21.2658 17.1017 20.8828 17.0642 20.5132 17.1373C20.1436 17.2105 19.8042 17.391 19.5377 17.6561C19.2713 17.9211 19.0898 18.2589 19.0163 18.6265C18.9428 18.9942 18.9805 19.3753 19.1247 19.7217C19.2689 20.068 19.5131 20.364 19.8264 20.5723C20.1397 20.7806 20.5081 20.8917 20.8849 20.8917C21.3884 20.8899 21.8708 20.6906 22.2275 20.337C22.5842 19.9835 22.7863 19.5043 22.7901 19.0034V18.9963ZM9.46088 18.9963C9.45899 19.2443 9.50622 19.4902 9.59986 19.72C9.69351 19.9499 9.83174 20.1591 10.0067 20.3357C10.1816 20.5124 10.3898 20.6531 10.6193 20.7497C10.8489 20.8463 11.0953 20.897 11.3446 20.8989C11.8499 20.8989 12.3345 20.6992 12.6918 20.3437C13.0491 19.9883 13.2498 19.5061 13.2498 19.0034C13.2498 18.5008 13.0491 18.0186 12.6918 17.6632C12.3345 17.3077 11.8499 17.108 11.3446 17.108C10.8424 17.1118 10.3623 17.3134 10.0092 17.6686C9.65614 18.0239 9.45897 18.5039 9.46088 19.0034V18.9963ZM16.0933 23.5496C16.3917 23.5505 16.6886 23.5072 16.9742 23.4213C17.1729 23.3651 17.358 23.2691 17.5181 23.1392C17.6782 23.0093 17.8099 22.8483 17.9053 22.666C17.977 22.5164 17.9913 22.3668 17.8266 22.2812C17.6618 22.1957 17.5472 22.2812 17.4541 22.4095C17.3011 22.5936 17.1117 22.7445 16.8976 22.8529C16.6836 22.9612 16.4495 23.0247 16.2098 23.0394C15.9701 23.0541 15.7299 23.0197 15.5041 22.9383C15.2783 22.8569 15.0717 22.7303 14.8971 22.5663C14.6966 22.3382 14.5247 22.4451 14.3886 22.5306C14.2525 22.6161 14.3886 22.7943 14.4745 22.8869C14.6775 23.1102 14.9284 23.2851 15.2086 23.3986C15.4889 23.5121 15.7913 23.5613 16.0933 23.5425V23.5496Z" fill="white"/>
<path id="Vector_8" d="M22.7909 19.0009C22.7908 19.3746 22.6798 19.7399 22.4717 20.051C22.2636 20.362 21.9677 20.6049 21.6212 20.7492C21.2748 20.8934 20.8932 20.9326 20.5244 20.8618C20.1556 20.7909 19.8161 20.6132 19.5486 20.351C19.281 20.0887 19.0974 19.7537 19.0206 19.3879C18.9439 19.0221 18.9776 18.6419 19.1174 18.2951C19.2572 17.9483 19.497 17.6504 19.8065 17.4387C20.116 17.2271 20.4815 17.1111 20.857 17.1055C21.1091 17.1036 21.3591 17.1512 21.5927 17.2454C21.8263 17.3397 22.039 17.4788 22.2185 17.6548C22.3981 17.8308 22.5411 18.0402 22.6393 18.2712C22.7375 18.5022 22.789 18.7502 22.7909 19.0009Z" fill="#18172F"/>
<path id="Vector_9" d="M9.46208 18.9984C9.44617 18.7411 9.48338 18.4834 9.57139 18.2409C9.6594 17.9985 9.79636 17.7766 9.97384 17.5889C10.1513 17.4011 10.3655 17.2515 10.6033 17.1492C10.8411 17.0469 11.0975 16.9941 11.3565 16.9941C11.6156 16.9941 11.8719 17.0469 12.1097 17.1492C12.3475 17.2515 12.5618 17.4011 12.7392 17.5889C12.9167 17.7766 13.0537 17.9985 13.1417 18.2409C13.2297 18.4834 13.2669 18.7411 13.251 18.9984C13.2454 19.4987 13.0426 19.9768 12.6863 20.3299C12.33 20.6831 11.8487 20.883 11.3458 20.8867C10.8449 20.8829 10.3658 20.6823 10.0129 20.3286C9.66007 19.9749 9.46206 19.4967 9.46208 18.9984Z" fill="#18172F"/>
<path id="Vector_10" d="M16.0942 23.5389C15.7916 23.5568 15.4889 23.5066 15.2086 23.3918C14.9283 23.2771 14.6777 23.1008 14.4754 22.8762C14.3967 22.7836 14.189 22.6482 14.3895 22.52C14.59 22.3917 14.6975 22.3276 14.898 22.5556C15.0726 22.7196 15.2792 22.8462 15.505 22.9276C15.7308 23.009 15.971 23.0434 16.2107 23.0287C16.4504 23.014 16.6845 22.9505 16.8985 22.8422C17.1126 22.7338 17.302 22.5829 17.455 22.3988C17.5481 22.2563 17.6627 22.1779 17.8275 22.2705C17.9922 22.3632 17.9779 22.5057 17.9062 22.6553C17.8108 22.8376 17.6791 22.9986 17.519 23.1285C17.3589 23.2584 17.1738 23.3544 16.9751 23.4107C16.6895 23.4965 16.3926 23.5398 16.0942 23.5389Z" fill="#18172F"/>
<path id="Vector_11" d="M37.6167 27.4748V11.9766H47.5939V14.328H40.4315V18.5393H46.8777V20.8907H40.4315V27.4748H37.6167Z" fill="#18172F"/>
<path id="Vector_12" d="M49.9004 27.4725V15.8506H52.572V17.7816H52.6937C52.8681 17.1555 53.2522 16.6074 53.7824 16.2282C54.1678 15.9699 54.6047 15.7973 55.0633 15.7223C55.5219 15.6473 55.9914 15.6716 56.4397 15.7935C56.6933 15.8603 56.935 15.9661 57.1559 16.1071L56.3036 18.373C56.1478 18.299 55.9845 18.2417 55.8165 18.202C55.6202 18.1512 55.4177 18.1272 55.2149 18.1308C54.8804 18.124 54.548 18.1835 54.2368 18.3058C53.9257 18.4282 53.6422 18.6109 53.4028 18.8433C53.1624 19.0781 52.9744 19.3606 52.851 19.6724C52.7276 19.9842 52.6715 20.3184 52.6866 20.6532V27.4867L49.9004 27.4725Z" fill="#18172F"/>
<path id="Vector_13" d="M63.4156 27.6995C62.3603 27.7308 61.3153 27.4851 60.3859 26.9869C59.5434 26.502 58.8632 25.7808 58.4306 24.9133C57.9772 23.9208 57.7427 22.8433 57.7427 21.7531C57.7427 20.6629 57.9772 19.5854 58.4306 18.5929C58.8522 17.7104 59.5213 16.968 60.3573 16.4552C61.2379 15.9342 62.248 15.67 63.2723 15.6928C64.1954 15.6835 65.107 15.8961 65.9296 16.3127C66.7586 16.7413 67.4378 17.4095 67.8778 18.2295C68.4023 19.2608 68.6491 20.4098 68.594 21.5643V22.4051H60.4718C60.4332 23.2589 60.7343 24.0935 61.3098 24.7281C61.5904 25.0076 61.9263 25.226 62.2962 25.3695C62.6661 25.513 63.0619 25.5785 63.4586 25.5618C63.9964 25.5731 64.5276 25.4428 64.9985 25.1841C65.4306 24.9307 65.76 24.535 65.9296 24.0654L68.5009 24.3504C68.2672 25.348 67.6569 26.218 66.7962 26.7802C65.7917 27.4265 64.6108 27.7476 63.4156 27.6995ZM60.479 20.5738H65.9726C65.9985 19.8529 65.7417 19.1502 65.2563 18.6143C65.0077 18.3584 64.7075 18.1575 64.3755 18.0249C64.0435 17.8923 63.6871 17.8309 63.3296 17.8447C62.9584 17.8321 62.5887 17.8973 62.2445 18.036C61.9002 18.1747 61.5891 18.3839 61.3313 18.6499C60.8259 19.1639 60.5233 19.8418 60.479 20.5596V20.5738Z" fill="#18172F"/>
<path id="Vector_14" d="M76.1148 27.6995C75.0594 27.7326 74.0139 27.4867 73.0851 26.9869C72.2407 26.5021 71.5582 25.781 71.1226 24.9134C70.6742 23.9195 70.4424 22.8425 70.4424 21.7531C70.4424 20.6638 70.6742 19.5867 71.1226 18.5929C71.5486 17.7133 72.2167 16.972 73.0493 16.4552C73.9325 15.934 74.9449 15.6699 75.9715 15.6928C76.8921 15.6846 77.8012 15.8973 78.6216 16.3127C79.4525 16.7412 80.134 17.4093 80.577 18.2295C81.0981 19.262 81.3447 20.4101 81.2932 21.5643V22.4051H73.1711C73.1336 23.2575 73.4316 24.0908 74.0019 24.7281C74.2824 25.0076 74.6183 25.226 74.9882 25.3695C75.3581 25.5131 75.7539 25.5785 76.1506 25.5618C76.6886 25.5752 77.2204 25.4448 77.6905 25.1841C78.1226 24.9308 78.452 24.535 78.6216 24.0654L81.1929 24.3504C80.959 25.346 80.3518 26.2151 79.4955 26.7803C78.4906 27.4256 77.3099 27.7467 76.1148 27.6995ZM73.1782 20.5738H78.6718C78.7008 19.8525 78.4435 19.1486 77.9555 18.6143C77.7083 18.3586 77.4094 18.1578 77.0785 18.0252C76.7477 17.8925 76.3924 17.831 76.036 17.8447C75.6646 17.8308 75.2945 17.8953 74.9501 18.0341C74.6056 18.1729 74.2947 18.3828 74.0377 18.6499C73.5269 19.161 73.2212 19.8401 73.1782 20.5596V20.5738Z" fill="#18172F"/>
<path id="Vector_15" d="M83.7568 27.4748V11.9766H93.8916V14.328H86.5788V18.5393H93.3688V20.8907H86.5788V25.1162H93.9489V27.4748H83.7568Z" fill="#18172F"/>
<path id="Vector_16" d="M105.888 18.9196L103.374 19.1904C103.249 18.7861 102.999 18.4318 102.658 18.1786C102.247 17.8694 101.74 17.7131 101.226 17.7368C100.722 17.7216 100.225 17.8502 99.7931 18.1073C99.6192 18.2012 99.4741 18.3403 99.3732 18.5096C99.2723 18.679 99.2194 18.8724 99.2201 19.0693C99.2136 19.227 99.2447 19.3841 99.3106 19.5277C99.3766 19.6713 99.4756 19.7974 99.5997 19.8958C99.978 20.166 100.415 20.3441 100.875 20.416L102.866 20.8364C105.048 21.3115 106.144 22.3613 106.153 23.986C106.164 24.6858 105.937 25.3688 105.509 25.9241C105.049 26.5077 104.441 26.958 103.747 27.2281C102.925 27.5549 102.046 27.7148 101.161 27.6984C99.944 27.7591 98.7379 27.4429 97.7089 26.7935C97.2878 26.5094 96.9313 26.1407 96.6624 25.7112C96.3934 25.2816 96.218 24.8007 96.1475 24.2995L98.8334 24.043C99.0697 25.0976 99.8432 25.632 101.154 25.632C101.707 25.6574 102.256 25.5185 102.73 25.233C102.909 25.1334 103.059 24.989 103.164 24.8139C103.27 24.6389 103.327 24.4394 103.331 24.2354C103.331 23.5869 102.801 23.1451 101.756 22.91L99.7645 22.4967C98.8355 22.3572 97.9685 21.9482 97.272 21.321C97.0033 21.0424 96.7942 20.7125 96.6576 20.3511C96.5209 19.9898 96.4594 19.6046 96.4769 19.2189C96.4601 18.548 96.6694 17.8909 97.0714 17.352C97.4994 16.8002 98.0718 16.3761 98.7259 16.1264C99.5138 15.8247 100.353 15.6771 101.197 15.6917C102.343 15.6284 103.479 15.9359 104.434 16.5682C105.204 17.1374 105.725 17.9793 105.888 18.9196Z" fill="#18172F"/>
<path id="Vector_17" d="M117.65 18.9196L115.136 19.1904C115.02 18.7908 114.782 18.4371 114.455 18.1786C114.035 17.8613 113.514 17.7046 112.987 17.7368C112.483 17.7208 111.986 17.8495 111.554 18.1073C111.38 18.2012 111.235 18.3403 111.134 18.5096C111.034 18.679 110.981 18.8724 110.981 19.0693C110.975 19.227 111.006 19.3841 111.072 19.5277C111.138 19.6713 111.237 19.7974 111.361 19.8958C111.739 20.166 112.176 20.3441 112.636 20.416L114.627 20.8364C116.809 21.3115 117.905 22.3613 117.915 23.986C117.925 24.6858 117.698 25.3688 117.27 25.9241C116.81 26.5077 116.202 26.958 115.508 27.2281C114.686 27.5549 113.807 27.7148 112.922 27.6984C111.705 27.76 110.499 27.4438 109.47 26.7935C109.049 26.5094 108.693 26.1407 108.424 25.7112C108.155 25.2816 107.979 24.8007 107.909 24.2995L110.595 24.043C110.831 25.0976 111.604 25.632 112.915 25.632C113.469 25.6574 114.017 25.5185 114.491 25.2329C114.67 25.1334 114.82 24.989 114.925 24.8139C115.031 24.6389 115.089 24.4394 115.093 24.2354C115.093 23.5869 114.563 23.1451 113.517 22.91L111.519 22.4967C110.592 22.3558 109.728 21.9469 109.033 21.321C108.764 21.0424 108.555 20.7125 108.419 20.3511C108.282 19.9898 108.221 19.6046 108.238 19.2189C108.223 18.5493 108.429 17.8933 108.825 17.352C109.258 16.8015 109.832 16.3779 110.487 16.1264C111.275 15.8247 112.114 15.6771 112.958 15.6917C114.104 15.6284 115.24 15.9359 116.196 16.5682C116.965 17.1374 117.486 17.9793 117.65 18.9196Z" fill="#18172F"/>
<path id="Vector_18" d="M123.536 27.7076C122.528 27.7438 121.539 27.4259 120.743 26.8097C120.365 26.4936 120.067 26.0936 119.873 25.6418C119.679 25.19 119.594 24.6992 119.626 24.2089C119.58 23.4781 119.804 22.7558 120.256 22.1781C120.699 21.6814 121.272 21.3164 121.91 21.1235C122.608 20.8974 123.329 20.7469 124.059 20.6746C125.091 20.5677 125.828 20.4608 126.272 20.3682C126.716 20.2755 126.946 20.0261 126.946 19.6556V19.6057C126.962 19.3614 126.924 19.1166 126.837 18.8878C126.749 18.6591 126.613 18.4519 126.437 18.2804C126.027 17.9412 125.501 17.7728 124.969 17.8101C124.402 17.7805 123.841 17.9356 123.372 18.2518C123.004 18.5076 122.726 18.8713 122.577 19.2922L120.005 18.9288C120.262 17.9276 120.902 17.0659 121.789 16.5274C122.746 15.9662 123.843 15.6847 124.954 15.7151C125.519 15.7147 126.082 15.7816 126.63 15.9146C127.176 16.04 127.694 16.2594 128.163 16.5631C128.633 16.8724 129.017 17.2938 129.28 17.7887C129.58 18.385 129.725 19.0463 129.703 19.7126V27.4938H127.053V25.8976H126.967C126.678 26.4218 126.259 26.8635 125.749 27.1803C125.079 27.5661 124.31 27.7493 123.536 27.7076ZM124.253 25.691C124.614 25.7104 124.976 25.6573 125.317 25.5349C125.658 25.4125 125.971 25.2232 126.236 24.9784C126.466 24.764 126.648 24.5044 126.772 24.2161C126.895 23.9278 126.957 23.6172 126.953 23.3039V21.9287C126.762 22.0605 126.544 22.1481 126.315 22.1852C126 22.2565 125.671 22.3206 125.32 22.3705L124.432 22.4987C123.889 22.5617 123.365 22.7338 122.892 23.0046C122.692 23.1239 122.529 23.2952 122.421 23.4999C122.312 23.7046 122.262 23.935 122.276 24.1661C122.263 24.3878 122.308 24.6091 122.405 24.8088C122.503 25.0084 122.651 25.1797 122.834 25.3062C123.253 25.5775 123.746 25.712 124.245 25.691H124.253Z" fill="#18172F"/>
<path id="Vector_19" d="M133.7 31.9971C133.349 32.0025 132.998 31.9666 132.655 31.8902C132.41 31.8432 132.17 31.7741 131.938 31.6836L132.576 29.4889C133.064 29.6553 133.589 29.6873 134.094 29.5815C134.338 29.4847 134.556 29.3324 134.73 29.1369C134.904 28.9414 135.03 28.7081 135.097 28.4557L135.369 27.7431L131.136 15.8789H134.051L136.744 24.6577H136.866L139.566 15.8789H142.496L137.776 28.9758C137.489 29.8303 136.971 30.5897 136.279 31.1705C135.54 31.7326 134.63 32.0245 133.7 31.9971Z" fill="#18172F"/>
<path id="Vector_20" d="M147.788 27.4748L143.398 11.9766H146.428L149.235 23.3776H149.379L152.38 11.9766H155.137L158.145 23.3776H158.281L161.089 11.9766H164.126L159.728 27.4748H156.942L153.826 16.6011H153.705L150.575 27.4748H147.788Z" fill="#18172F"/>
<path id="Vector_21" d="M165.214 27.4728V15.8509H167.886V17.782H168.008C168.184 17.1548 168.571 16.6066 169.104 16.2286C169.626 15.8644 170.249 15.6724 170.887 15.6799H171.403C171.561 15.6884 171.719 15.7075 171.875 15.7369V18.2879C171.694 18.2392 171.51 18.2035 171.324 18.181C171.087 18.1477 170.847 18.1311 170.608 18.1311C170.262 18.1208 169.918 18.1784 169.594 18.3007C169.271 18.4229 168.975 18.6075 168.724 18.8437C168.476 19.0764 168.282 19.3587 168.152 19.6719C168.022 19.9851 167.961 20.3222 167.972 20.6607V27.4942L165.214 27.4728Z" fill="#18172F"/>
<path id="Vector_22" d="M175.106 14.1953C174.899 14.1999 174.693 14.1639 174.5 14.0893C174.307 14.0147 174.131 13.903 173.981 13.7606C173.829 13.6269 173.707 13.4624 173.623 13.2781C173.539 13.0939 173.496 12.894 173.496 12.6918C173.496 12.4896 173.539 12.2897 173.623 12.1054C173.707 11.9212 173.829 11.7567 173.981 11.623C174.288 11.3441 174.69 11.1895 175.106 11.1895C175.522 11.1895 175.923 11.3441 176.23 11.623C176.383 11.7567 176.505 11.9212 176.588 12.1054C176.672 12.2897 176.715 12.4896 176.715 12.6918C176.715 12.894 176.672 13.0939 176.588 13.2781C176.505 13.4624 176.383 13.6269 176.23 13.7606C175.928 14.0475 175.523 14.2038 175.106 14.1953ZM173.723 27.4704V15.8485H176.474V27.4704H173.723Z" fill="#18172F"/>
<path id="Vector_23" d="M185.142 15.8492V17.9869H182.835V23.9867C182.808 24.1841 182.827 24.3852 182.89 24.5742C182.953 24.7633 183.06 24.9353 183.201 25.0769C183.462 25.2535 183.773 25.3433 184.089 25.3334C184.247 25.3333 184.405 25.3214 184.562 25.2978L184.891 25.2265L185.357 27.3642C185.15 27.4305 184.939 27.4852 184.726 27.5281C184.401 27.5982 184.07 27.634 183.738 27.635C182.807 27.6961 181.883 27.4287 181.131 26.8797C180.77 26.5874 180.486 26.2121 180.304 25.7862C180.122 25.3604 180.047 24.8968 180.085 24.4356V17.9726H178.423V15.835H180.085V13.0488H182.835V15.835L185.142 15.8492Z" fill="#18172F"/>
<path id="Vector_24" d="M192.496 27.6996C191.44 27.732 190.395 27.4862 189.466 26.987C188.622 26.5023 187.939 25.7812 187.503 24.9135C187.055 23.9196 186.823 22.8426 186.823 21.7533C186.823 20.6639 187.055 19.5869 187.503 18.593C187.93 17.7114 188.601 16.9696 189.437 16.4553C190.318 15.9333 191.328 15.669 192.352 15.6929C193.275 15.6836 194.187 15.8963 195.01 16.3128C195.839 16.7414 196.518 17.4097 196.958 18.2296C197.479 19.2621 197.726 20.4102 197.674 21.5644V22.4052H189.566C189.529 23.2576 189.827 24.091 190.397 24.7282C190.678 25.0077 191.014 25.2261 191.383 25.3697C191.753 25.5132 192.149 25.5786 192.546 25.5619C193.084 25.5753 193.616 25.4449 194.086 25.1842C194.521 24.9321 194.853 24.5362 195.024 24.0655L197.595 24.3505C197.359 25.3469 196.749 26.216 195.891 26.7804C194.882 27.4295 193.696 27.7507 192.496 27.6996ZM189.559 20.574H195.053C195.082 19.8526 194.824 19.1488 194.336 18.6144C194.09 18.358 193.791 18.1567 193.46 18.024C193.129 17.8913 192.773 17.8302 192.417 17.8448C192.046 17.8309 191.675 17.8954 191.331 18.0342C190.986 18.173 190.676 18.3829 190.419 18.65C189.91 19.1622 189.607 19.8412 189.566 20.5597L189.559 20.574Z" fill="#18172F"/>
<path id="Vector_25" d="M200.017 27.4725V15.8506H202.689V17.7816H202.81C202.992 17.1571 203.378 16.6106 203.906 16.2282C204.292 15.9699 204.729 15.7973 205.187 15.7223C205.646 15.6473 206.115 15.6716 206.564 15.7935C206.817 15.8617 207.058 15.9674 207.28 16.1071L206.427 18.373C206.271 18.3001 206.108 18.2428 205.94 18.202C205.744 18.1512 205.542 18.1272 205.339 18.1308C205.003 18.1246 204.67 18.1844 204.358 18.3067C204.046 18.4289 203.761 18.6113 203.52 18.8433C203.28 19.0786 203.092 19.3612 202.969 19.6729C202.846 19.9846 202.789 20.3185 202.803 20.6532V27.4867L200.017 27.4725Z" fill="#18172F"/>
<path id="Vector_26" d="M210.116 27.6358C209.896 27.6377 209.678 27.5961 209.474 27.5134C209.271 27.4307 209.085 27.3086 208.929 27.1542C208.773 26.9997 208.65 26.816 208.566 26.6137C208.482 26.4113 208.439 26.1944 208.44 25.9755C208.436 25.7579 208.477 25.5418 208.561 25.3407C208.645 25.1396 208.77 24.9579 208.927 24.8069C209.083 24.651 209.268 24.5278 209.472 24.4446C209.677 24.3613 209.896 24.3198 210.116 24.3224C210.557 24.326 210.979 24.5009 211.292 24.8098C211.605 25.1186 211.785 25.5369 211.792 25.9755C211.792 26.1949 211.748 26.412 211.661 26.614C211.575 26.8159 211.449 26.9986 211.291 27.1513C211.139 27.3074 210.956 27.4309 210.754 27.5142C210.552 27.5976 210.335 27.6389 210.116 27.6358Z" fill="#18172F"/>
<path id="Vector_27" d="M218.001 27.7076C216.996 27.7441 216.01 27.4289 215.215 26.8169C214.837 26.4989 214.539 26.0975 214.345 25.6447C214.151 25.1919 214.067 24.7002 214.098 24.2089C214.052 23.4781 214.276 22.7558 214.728 22.1781C215.173 21.6836 215.745 21.3191 216.382 21.1235C217.082 20.9042 217.802 20.7538 218.531 20.6746C219.562 20.5677 220.3 20.4608 220.744 20.3682C221.188 20.2755 221.418 20.0261 221.418 19.6556V19.6057C221.433 19.3614 221.396 19.1166 221.309 18.8878C221.221 18.6591 221.085 18.4519 220.909 18.2804C220.494 17.9507 219.971 17.7857 219.441 17.8172C218.875 17.7845 218.314 17.9372 217.843 18.2518C217.476 18.5076 217.198 18.8713 217.048 19.2922L214.477 18.9288C214.734 17.9276 215.374 17.0659 216.261 16.5274C217.218 15.9662 218.315 15.6847 219.426 15.7151C219.991 15.7182 220.553 15.7851 221.102 15.9146C221.647 16.04 222.166 16.2594 222.635 16.5631C223.105 16.8724 223.489 17.2938 223.752 17.7887C224.051 18.3855 224.196 19.0464 224.175 19.7126V27.4938H221.525V25.8976H221.439C221.154 26.4248 220.734 26.8673 220.221 27.1803C219.549 27.567 218.777 27.7503 218.001 27.7076ZM218.717 25.691C219.079 25.7087 219.441 25.6549 219.781 25.5326C220.122 25.4103 220.434 25.2219 220.701 24.9784C220.929 24.7613 221.111 24.5002 221.234 24.2111C221.357 23.9219 221.419 23.6108 221.418 23.2968V21.9287C221.224 22.0544 221.007 22.1393 220.78 22.1781C220.465 22.2493 220.135 22.3135 219.784 22.3633L218.896 22.4916C218.354 22.5546 217.83 22.7267 217.356 22.9975C217.157 23.1168 216.994 23.288 216.886 23.4928C216.777 23.6975 216.727 23.9279 216.74 24.159C216.728 24.3807 216.772 24.602 216.87 24.8016C216.968 25.0013 217.116 25.1726 217.299 25.2991C217.719 25.5743 218.215 25.7114 218.717 25.691Z" fill="#18172F"/>
<path id="Vector_28" d="M228.336 14.196C227.916 14.2056 227.509 14.0493 227.204 13.7614C227.052 13.6276 226.93 13.4632 226.846 13.2789C226.762 13.0946 226.719 12.8947 226.719 12.6925C226.719 12.4903 226.762 12.2905 226.846 12.1062C226.93 11.9219 227.052 11.7574 227.204 11.6237C227.513 11.3443 227.915 11.1895 228.332 11.1895C228.75 11.1895 229.152 11.3443 229.46 11.6237C229.613 11.7574 229.735 11.9219 229.819 12.1062C229.902 12.2905 229.945 12.4903 229.945 12.6925C229.945 12.8947 229.902 13.0946 229.819 13.2789C229.735 13.4632 229.613 13.6276 229.46 13.7614C229.158 14.0483 228.754 14.2045 228.336 14.196ZM226.954 27.4711V15.8492H229.675V27.4711H226.954Z" fill="#18172F"/>
</g>
</svg>
