<svg width="22" height="22" viewBox="0 0 22 22" fill="none" xmlns="http://www.w3.org/2000/svg">
<g id="user 2">
<g id="Group">
<g id="Group_2">
<path id="Vector" d="M10.9998 2.53906C8.66697 2.53906 6.76904 4.43699 6.76904 6.76983C6.76904 9.10268 8.66697 11.0006 10.9998 11.0006C13.3327 11.0006 15.2306 9.10268 15.2306 6.76983C15.2306 4.43699 13.3327 2.53906 10.9998 2.53906Z" fill="white"/>
</g>
</g>
<g id="Group_3">
<g id="Group_4">
<path id="Vector_2" d="M16.0535 13.8269C14.9416 12.6287 13.4675 11.9688 11.9028 11.9688H10.0976C8.53294 11.9688 7.05881 12.6287 5.94685 13.8269C4.84034 15.0193 4.23096 16.5933 4.23096 18.259C4.23096 18.5235 4.43301 18.738 4.68224 18.738H17.3181C17.5674 18.738 17.7694 18.5235 17.7694 18.259C17.7694 16.5933 17.16 15.0193 16.0535 13.8269Z" fill="white"/>
</g>
</g>
</g>
</svg>
